<?xml version="1.0" encoding="UTF-8"?>
<svg version="1.1" xmlns="http://www.w3.org/2000/svg" width="32" height="32">
<path d="M0 0 C10.56 0 21.12 0 32 0 C32 10.56 32 21.12 32 32 C21.44 32 10.88 32 0 32 C0 21.44 0 10.88 0 0 Z " fill="#896439" transform="translate(0,0)"/>
<path d="M0 0 C3.63 0 7.26 0 11 0 C11 0.99 11 1.98 11 3 C10.01 3.33 9.02 3.66 8 4 C8.8971875 4.99 8.8971875 4.99 9.8125 6 C13.15145558 10.57913908 14.6953504 15.52534888 16 21 C15.01 21 14.02 21 13 21 C13.020625 22.11375 13.04125 23.2275 13.0625 24.375 C13 28 13 28 12 30 C9.85546875 30.44921875 9.85546875 30.44921875 7.1875 30.6875 C5.87845703 30.81705078 5.87845703 30.81705078 4.54296875 30.94921875 C2 31 2 31 -2 30 C-2 26.04 -2 22.08 -2 18 C-2.66 18 -3.32 18 -4 18 C-4 17.34 -4 16.68 -4 16 C-3.34 16 -2.68 16 -2 16 C-2 13.36 -2 10.72 -2 8 C-0.68 8 0.64 8 2 8 C2.33 9.98 2.66 11.96 3 14 C3.66 14 4.32 14 5 14 C5 14.66 5 15.32 5 16 C6.32 16 7.64 16 9 16 C9.33 13.69 9.66 11.38 10 9 C9.34 9 8.68 9 8 9 C8 8.34 8 7.68 8 7 C3.38492226 5.95785309 3.38492226 5.95785309 -1 7 C-0.67 4.69 -0.34 2.38 0 0 Z " fill="#182631" transform="translate(8,0)"/>
<path d="M0 0 C2.64 0 5.28 0 8 0 C8 0.99 8 1.98 8 3 C8.99 3.33 9.98 3.66 11 4 C10.01 4.495 10.01 4.495 9 5 C11.31 5.66 13.62 6.32 16 7 C16 7.66 16 8.32 16 9 C16.66 9 17.32 9 18 9 C17.67 11.31 17.34 13.62 17 16 C15.68 16 14.36 16 13 16 C13 15.34 13 14.68 13 14 C12.34 14 11.68 14 11 14 C10.67 12.02 10.34 10.04 10 8 C8.68 8 7.36 8 6 8 C6 10.64 6 13.28 6 16 C5.34 16 4.68 16 4 16 C4 16.66 4 17.32 4 18 C4.66 18 5.32 18 6 18 C6.80917656 22.58533383 6.93391785 25.33041073 6 30 C10.29 30 14.58 30 19 30 C18.67 30.66 18.34 31.32 18 32 C12.06 32 6.12 32 0 32 C0 21.44 0 10.88 0 0 Z " fill="#A09B79" transform="translate(0,0)"/>
<path d="M0 0 C1.8871875 0.0309375 1.8871875 0.0309375 3.8125 0.0625 C3.8125 4.0225 3.8125 7.9825 3.8125 12.0625 C-0.8075 12.0625 -5.4275 12.0625 -10.1875 12.0625 C-9.5275 10.7425 -8.8675 9.4225 -8.1875 8.0625 C-7.80000787 5.73754723 -7.45767161 3.40398732 -7.1875 1.0625 C-4.43671116 0.14557039 -2.82801087 -0.04636083 0 0 Z " fill="#9A8167" transform="translate(28.1875,19.9375)"/>
<path d="M0 0 C1.32 0 2.64 0 4 0 C4.33 1.98 4.66 3.96 5 6 C5.66 6 6.32 6 7 6 C7 6.66 7 7.32 7 8 C8.32 8 9.64 8 11 8 C11 8.99 11 9.98 11 11 C11.66 11 12.32 11 13 11 C13 12.32 13 13.64 13 15 C11.39504433 14.88557539 9.79101881 14.75805306 8.1875 14.625 C6.84751953 14.52058594 6.84751953 14.52058594 5.48046875 14.4140625 C3 14 3 14 0 12 C0 11.34 0 10.68 0 10 C-0.66 10 -1.32 10 -2 10 C-2 9.34 -2 8.68 -2 8 C-1.34 8 -0.68 8 0 8 C0 5.36 0 2.72 0 0 Z " fill="#1A2324" transform="translate(6,8)"/>
<path d="M0 0 C-0.33 3.3 -0.66 6.6 -1 10 C3.29 10 7.58 10 12 10 C11.67 10.66 11.34 11.32 11 12 C5.06 12 -0.88 12 -7 12 C-7 5 -7 5 -4.625 2.0625 C-2 0 -2 0 0 0 Z " fill="#688B54" transform="translate(7,20)"/>
<path d="M0 0 C0.33 3.3 0.66 6.6 1 10 C-0.65 10 -2.3 10 -4 10 C-4 8.35 -4 6.7 -4 5 C-6.31 4.01 -8.62 3.02 -11 2 C-11 1.34 -11 0.68 -11 0 C-3.375 -1.125 -3.375 -1.125 0 0 Z " fill="#D29560" transform="translate(29,5)"/>
<path d="M0 0 C2.64 0 5.28 0 8 0 C8 2.64 8 5.28 8 8 C4.7 8 1.4 8 -2 8 C-1.34 5.36 -0.68 2.72 0 0 Z " fill="#69713A" transform="translate(24,23)"/>
<path d="M0 0 C3.63 0 7.26 0 11 0 C11 0.99 11 1.98 11 3 C10.01 3.33 9.02 3.66 8 4 C9.32 5.65 10.64 7.3 12 9 C11.01 9.495 11.01 9.495 10 10 C9.34 9.67 8.68 9.34 8 9 C8 8.34 8 7.68 8 7 C3.38492226 5.95785309 3.38492226 5.95785309 -1 7 C-0.67 4.69 -0.34 2.38 0 0 Z " fill="#383B3B" transform="translate(8,0)"/>
<path d="M0 0 C2.31 0.66 4.62 1.32 7 2 C7 2.66 7 3.32 7 4 C7.66 4 8.32 4 9 4 C8.67 6.31 8.34 8.62 8 11 C6.68 11 5.36 11 4 11 C4 10.34 4 9.68 4 9 C3.34 9 2.68 9 2 9 C1.67 7.02 1.34 5.04 1 3 C0.01 2.67 -0.98 2.34 -2 2 C-1.34 1.34 -0.68 0.68 0 0 Z " fill="#8C6F62" transform="translate(9,5)"/>
<path d="M0 0 C2.31 0.33 4.62 0.66 7 1 C6.67 2.98 6.34 4.96 6 7 C7.32 7 8.64 7 10 7 C9.125 10.875 9.125 10.875 8 12 C7.01 12 6.02 12 5 12 C0.57142857 4.71428571 0.57142857 4.71428571 0 0 Z " fill="#8F5039" transform="translate(19,8)"/>
<path d="M0 0 C2.64 0 5.28 0 8 0 C8 0.99 8 1.98 8 3 C8.99 3.33 9.98 3.66 11 4 C10.01 4.33 9.02 4.66 8 5 C7.67 5.66 7.34 6.32 7 7 C5.68 7 4.36 7 3 7 C3 8.98 3 10.96 3 13 C2.34 12.67 1.68 12.34 1 12 C1.33 9.03 1.66 6.06 2 3 C1.34 3 0.68 3 0 3 C0 2.01 0 1.02 0 0 Z " fill="#689394" transform="translate(0,0)"/>
<path d="M0 0 C0.66 0 1.32 0 2 0 C2.67154933 1.28913487 3.33708859 2.58140204 4 3.875 C4.37125 4.59429688 4.7425 5.31359375 5.125 6.0546875 C6 8 6 8 6 10 C3.69 9.67 1.38 9.34 -1 9 C-1.09765625 2.84765625 -1.09765625 2.84765625 -1 1 C-0.67 0.67 -0.34 0.34 0 0 Z " fill="#19191A" transform="translate(18,10)"/>
<path d="M0 0 C5.75 -0.125 5.75 -0.125 8 1 C8 2.32 8 3.64 8 5 C4.7 4.67 1.4 4.34 -2 4 C-2 3.34 -2 2.68 -2 2 C-1.34 2 -0.68 2 0 2 C0 1.34 0 0.68 0 0 Z " fill="#3E4F5C" transform="translate(11,18)"/>
<path d="M0 0 C0.33 0.99 0.66 1.98 1 3 C0.34 3 -0.32 3 -1 3 C-1 3.66 -1 4.32 -1 5 C-0.34 5 0.32 5 1 5 C-0.39332574 8.36720387 -1.9789286 9.9859524 -5 12 C-5.20086443 8.28400809 -5.1519437 7.22791555 -3 4 C-3 3.01 -3 2.02 -3 1 C-2.01 0.67 -1.02 0.34 0 0 Z " fill="#8F7860" transform="translate(5,13)"/>
<path d="M0 0 C1.32 0 2.64 0 4 0 C4 1.98 4 3.96 4 6 C2.02 6 0.04 6 -2 6 C-2 5.34 -2 4.68 -2 4 C-2.99 3.67 -3.98 3.34 -5 3 C-4.01 3 -3.02 3 -2 3 C-1.67 2.34 -1.34 1.68 -1 1 C-0.67 1 -0.34 1 0 1 C0 0.67 0 0.34 0 0 Z " fill="#0E1720" transform="translate(16,24)"/>
<path d="M0 0 C-2.1875 2.0625 -2.1875 2.0625 -5 4 C-7.8125 3.75 -7.8125 3.75 -10 3 C-10.33 2.01 -10.66 1.02 -11 0 C-3.375 -1.125 -3.375 -1.125 0 0 Z " fill="#BE8F67" transform="translate(29,5)"/>
<path d="M0 0 C5.28497409 -0.44041451 5.28497409 -0.44041451 8 0 C10.5 2.5 10.5 2.5 12 5 C11.01 5.495 11.01 5.495 10 6 C9.34 5.67 8.68 5.34 8 5 C8 4.34 8 3.68 8 3 C3.38492226 1.95785309 3.38492226 1.95785309 -1 3 C-0.67 2.01 -0.34 1.02 0 0 Z " fill="#302D2B" transform="translate(8,4)"/>
<path d="M0 0 C0.33 0.99 0.66 1.98 1 3 C5.29 3 9.58 3 14 3 C13.67 3.66 13.34 4.32 13 5 C8.05 5 3.1 5 -2 5 C-1.34 3.35 -0.68 1.7 0 0 Z " fill="#3F7282" transform="translate(5,27)"/>
<path d="M0 0 C0.33 0 0.66 0 1 0 C1 2.97 1 5.94 1 9 C-0.98 9 -2.96 9 -5 9 C-5.33 8.34 -5.66 7.68 -6 7 C-5.01 7 -4.02 7 -3 7 C-2.67 6.01 -2.34 5.02 -2 4 C-1.34 4 -0.68 4 0 4 C0 2.68 0 1.36 0 0 Z " fill="#553914" transform="translate(31,11)"/>
<path d="M0 0 C2.31 0.33 4.62 0.66 7 1 C6.01 1.495 6.01 1.495 5 2 C4.34786708 4.02463255 4.34786708 4.02463255 4 6 C3.01 5.67 2.02 5.34 1 5 C0.67 3.35 0.34 1.7 0 0 Z " fill="#9D6F51" transform="translate(19,8)"/>
<path d="M0 0 C1.32 0 2.64 0 4 0 C4 2.31 4 4.62 4 7 C2.68 6.67 1.36 6.34 0 6 C0.99 6 1.98 6 3 6 C3 5.34 3 4.68 3 4 C2.34 4 1.68 4 1 4 C0.67 2.68 0.34 1.36 0 0 Z " fill="#5F6026" transform="translate(28,24)"/>
<path d="M0 0 C0 0.99 0 1.98 0 3 C-2.64 3 -5.28 3 -8 3 C-5.53387212 -0.1151089 -3.89156016 -0.31553191 0 0 Z " fill="#B58A60" transform="translate(32,20)"/>
<path d="M0 0 C1.32 0 2.64 0 4 0 C4.33 1.65 4.66 3.3 5 5 C3.68 4.34 2.36 3.68 1 3 C1 4.65 1 6.3 1 8 C0.67 8 0.34 8 0 8 C0 5.36 0 2.72 0 0 Z " fill="#3F403B" transform="translate(6,8)"/>
<path d="M0 0 C0.66 0 1.32 0 2 0 C1.67 2.31 1.34 4.62 1 7 C-0.32 7 -1.64 7 -3 7 C-3 6.01 -3 5.02 -3 4 C-2.34 3.67 -1.68 3.34 -1 3 C-0.67 2.01 -0.34 1.02 0 0 Z " fill="#67574C" transform="translate(16,9)"/>
<path d="M0 0 C-0.33 2.31 -0.66 4.62 -1 7 C-1.33 6.01 -1.66 5.02 -2 4 C-2.99 3.67 -3.98 3.34 -5 3 C-2.25 0 -2.25 0 0 0 Z " fill="#758E8E" transform="translate(7,20)"/>
</svg>
