<?xml version="1.0" encoding="utf-8"?>
<!-- Generator: Adobe Illustrator 22.0.1, SVG Export Plug-In . SVG Version: 6.00 Build 0)  -->
<svg version="1.1" xmlns="http://www.w3.org/2000/svg" xmlns:xlink="http://www.w3.org/1999/xlink" x="0px" y="0px"
	 viewBox="0 0 512 512" style="enable-background:new 0 0 512 512;" xml:space="preserve">
<style type="text/css">
	.st0{fill:#A5CDBC;}
	.st1{fill:#453D80;}
	.st2{fill:#E9D178;}
	.st3{fill:#918BC6;}
	.st4{fill:#E2A2AB;}
	.st5{fill:#EECAC4;}
	.st6{fill:#7CB59C;}
	.st7{fill:#BDB9DC;}
	.st8{fill:#E2A66F;}
	.st9{fill:#DAAB5C;}
	.st10{fill:#74A0FB;}
	.st11{fill:#EDBB87;}
	.st12{fill:#EFCBC5;}
	.st13{fill:#CB9E56;}
	.st14{fill:#F8EF6C;}
	.st15{fill:#BBD9CC;}
	.st16{fill:#673528;}
	.st17{fill:#532B22;}
	.st18{fill:#7A3F2C;}
	.st19{fill:#B9865D;}
	.st20{fill:#A1ACA5;}
	.st21{fill:#B7C7BE;}
	.st22{fill:#D3E8DF;}
	.st23{fill:#AA583E;}
	.st24{fill:#944937;}
	.st25{fill:#E9A497;}
	.st26{fill:#C15E48;}
	.st27{fill:#D29289;}
	.st28{fill:#E4CAC8;}
	.st29{fill:#BFE6D5;}
	.st30{fill:#A2D6BD;}
	.st31{fill:#D5EBE2;}
	.st32{fill:#EBF3EF;}
	.st33{fill:#5F55AB;}
	.st34{fill:#2A284C;}
	.st35{fill:#D69C6C;}
	.st36{fill:#CE9567;}
	.st37{fill:#EAE7D6;}
	.st38{fill:#E1C978;}
	.st39{fill:#544C4A;}
	.st40{fill:#ACABB4;}
	.st41{fill:#BC8B63;}
	.st42{fill:#B9D7CA;}
	.st43{fill:#C9B26B;}
	.st44{fill:#817EB1;}
	.st45{fill:#3C3B4D;}
	.st46{fill:#2B2A36;}
	.st47{fill:#CC9567;}
	.st48{fill:#AF7C59;}
	.st49{fill:#A27855;}
	.st50{fill:#B4825B;}
	.st51{fill:#806045;}
	.st52{fill:#CB8694;}
	.st53{fill:#AE6E7E;}
	.st54{fill:#DDC3CB;}
	.st55{fill:#DEE8E3;}
	.st56{fill:#9B3A52;}
	.st57{fill:#C43C50;}
	.st58{fill:#538872;}
	.st59{fill:#67A78A;}
	.st60{fill:none;stroke:#E2A66F;stroke-width:6;stroke-linecap:round;stroke-miterlimit:10;}
	.st61{fill:none;stroke:#B9865D;stroke-width:6;stroke-linecap:round;stroke-miterlimit:10;}
	.st62{fill:#C4D6CD;}
	.st63{fill:#BCE9F2;}
	.st64{fill:#E2B9C1;}
	.st65{fill:#D19AA6;}
	.st66{fill:#D8ACB7;}
	.st67{fill:#C4929F;}
	.st68{fill:#CA6F63;}
	.st69{fill:#E07B67;}
	.st70{fill:#DF9589;}
	.st71{fill:#BE6761;}
	.st72{fill:#9B7380;}
	.st73{fill:#C48D99;}
	.st74{fill:#A97A86;}
	.st75{fill:#886672;}
	.st76{fill:#EEE8D6;}
	.st77{fill:#DCD7C8;}
	.st78{fill:#DB95A3;}
	.st79{fill:#E3CCD3;}
	.st80{fill:#CFBEC3;}
	.st81{fill:#EDE5E7;}
	.st82{fill:#39356B;}
	.st83{fill:#D8E8E1;}
	.st84{fill:none;stroke:#E2A66F;stroke-width:10;stroke-linecap:round;stroke-miterlimit:10;}
	.st85{fill:#C0A2A1;}
	.st86{fill:#ABAAD4;}
	.st87{fill:#514C96;}
	.st88{fill:#C1C1DF;}
	.st89{fill:#807CAE;}
	.st90{fill:#40715B;}
	.st91{fill:#DB9E6B;}
	.st92{fill:#E3C8B0;}
	.st93{fill:#653528;}
	.st94{fill:#D0C5C2;}
	.st95{fill:#EBE4E2;}
	.st96{fill:#F2F0DE;}
	.st97{fill:#668C7B;}
	.st98{fill:#65937D;}
	.st99{fill:#AD617E;}
	.st100{fill:#C97793;}
	.st101{fill:#E28DA3;}
	.st102{fill:#F9A2B3;}
	.st103{fill:#F2D7DC;}
	.st104{fill:#963346;}
	.st105{fill:#AA394E;}
	.st106{fill:#C8C8D5;}
	.st107{fill:#D5D4E8;}
	.st108{fill:#A2A1AF;}
	.st109{fill:#BABACB;}
	.st110{fill:#CCE0D7;}
	.st111{fill:#E0A0A9;}
	.st112{fill:#943346;}
	.st113{fill:#8F89C4;}
	.st114{fill:#BBB7DA;}
	.st115{fill:#C23C50;}
	.st116{fill:#A8394E;}
	.st117{fill:#EBB985;}
	.st118{fill:#DFA36F;}
	.st119{fill:#E1D3CF;}
	.st120{fill:#A59B98;}
	.st121{fill:#3E221C;}
	.st122{fill:none;stroke:#B7845D;stroke-width:8;stroke-linecap:round;stroke-miterlimit:10;}
	.st123{fill:none;stroke:#743A2F;stroke-width:7;stroke-linecap:round;stroke-miterlimit:10;}
	.st124{fill:#EEEBDA;}
	.st125{fill:#E5CD78;}
	.st126{fill:#69342A;}
	.st127{fill:#8C8482;}
	.st128{fill:#BA9D6F;}
	.st129{fill:#EFEFEF;}
	.st130{fill:none;stroke:#E2A66F;stroke-width:8;stroke-linecap:round;stroke-miterlimit:10;}
	.st131{fill:#6A9982;}
	.st132{fill:#638DCA;}
	.st133{fill:#6B96E1;}
	.st134{fill:#90B6F3;}
	.st135{fill:#6796EB;}
	.st136{fill:#C8A7A5;}
	.st137{fill:#817EAE;}
	.st138{fill:#DF9387;}
	.st139{fill:#B99151;}
	.st140{fill:#EFE8D0;}
	.st141{fill:#CC8D84;}
	.st142{fill:#304B78;}
	.st143{fill:#283F65;}
	.st144{fill:#365780;}
	.st145{fill:#CC94A0;}
	.st146{fill:#C0C6CC;}
	.st147{fill:#EBD5DA;}
	.st148{fill:#668ED4;}
	.st149{fill:#D4C3C7;}
	.st150{fill:#ACB0B4;}
	.st151{fill:#B6BDC3;}
	.st152{fill:#CE9668;}
	.st153{fill:#9C9FA0;}
	.st154{fill:#893248;}
	.st155{fill:#E7EBF0;}
	.st156{fill:#673628;}
	.st157{fill:#ECE9D8;}
	.st158{fill:#E3CB78;}
	.st159{fill:#6D9E86;}
	.st160{fill:#BE9573;}
	.st161{fill:#D1A37A;}
	.st162{fill:#D5C6B8;}
	.st163{fill:#E7D4C3;}
	.st164{fill:#B4A69A;}
	.st165{fill:#C79064;}
	.st166{fill:#BEC4C9;}
	.st167{fill:#AAADB2;}
	.st168{fill:#B4BBC1;}
	.st169{fill:#CC9468;}
	.st170{fill:#9A9D9E;}
	.st171{fill:#873248;}
	.st172{fill:#E5E9EE;}
	.st173{fill:#DBBBB8;}
	.st174{fill:#D3CAC3;}
	.st175{fill:#E4DAD1;}
	.st176{fill:#979492;}
	.st177{fill:#BAB5B0;}
	.st178{fill:#D1996C;}
	.st179{fill:#58504B;}
	.st180{fill:#E3DBDB;}
	.st181{fill:#855151;}
	.st182{fill:#BD8F9B;}
	.st183{fill:#CFC45A;}
	.st184{fill:#599178;}
	.st185{fill:#C3EDDE;}
	.st186{fill:#A2D4BF;}
	.st187{fill:#CA6F62;}
	.st188{fill:#EBDDE0;}
	.st189{fill:#D7CCCF;}
	.st190{fill:#CBC8C9;}
	.st191{fill:#A39EA0;}
	.st192{fill:#BAB2B4;}
	.st193{fill:#AA818B;}
	.st194{fill:#BF8D97;}
	.st195{fill:#C8939E;}
	.st196{fill:#E4C0C7;}
	.st197{fill:#A5BAD3;}
	.st198{fill:#B3CAEC;}
	.st199{fill:#6C95DC;}
	.st200{fill:#6E9AE6;}
	.st201{fill:#D4A67D;}
	.st202{fill:#D3D1C2;}
	.st203{fill:#827FB3;}
	.st204{fill:#646386;}
	.st205{fill:#6F6D97;}
	.st206{fill:#5A597A;}
	.st207{fill:#B6B4DA;}
	.st208{fill:#D0CEC0;}
	.st209{fill:#DAB9B6;}
	.st210{fill:#7E7AAB;}
	.st211{fill:#DBC5C5;}
	.st212{fill:#E0C18D;}
	.st213{fill:#7D9DC8;}
	.st214{fill:#9EBEEF;}
	.st215{fill:#C3D6F0;}
	.st216{fill:#B79872;}
	.st217{fill:#A68962;}
	.st218{fill:#70665E;}
	.st219{fill:#8E9791;}
	.st220{fill:#535399;}
	.st221{fill:#E0EBE4;}
	.st222{fill:#C08B96;}
	.st223{fill:#DDEDE7;}
	.st224{fill:#A68048;}
	.st225{fill:#474085;}
	.st226{fill:#7C7C9C;}
	.st227{fill:#9E9DCD;}
	.st228{fill:#4D291F;}
	.st229{fill:#854735;}
	.st230{fill:#9C533F;}
	.st231{fill:#D15F2E;}
	.st232{fill:#C26862;}
	.st233{fill:#464648;}
	.st234{fill:#3A3A3C;}
	.st235{fill:#5E5E63;}
	.st236{fill:#4F4F55;}
	.st237{fill:#7F7F86;}
	.st238{fill:#686871;}
	.st239{fill:#548A72;}
	.st240{fill:#67A98C;}
	.st241{fill:#CC9366;}
	.st242{fill:#CEB76E;}
	.st243{fill:#E1D4AB;}
	.st244{fill:#A87958;}
	.st245{fill:#92B5A5;}
	.st246{fill:#B68B4F;}
	.st247{fill:#D5B788;}
	.st248{fill:#CDE0D8;}
	.st249{fill:#6F6D95;}
	.st250{fill:#DAE1E6;}
	.st251{fill:#E0B7BF;}
	.st252{fill:#C2909D;}
	.st253{fill:#D6AAB5;}
	.st254{fill:#807FB1;}
	.st255{fill:#646384;}
	.st256{fill:#B4B2D8;}
	.st257{fill:#E8E5D4;}
	.st258{fill:#DFC778;}
	.st259{fill:#CF98A4;}
	.st260{fill:#99737F;}
	.st261{fill:none;stroke:#538872;stroke-width:10;stroke-linecap:round;stroke-miterlimit:10;}
	.st262{fill:#87485A;}
	.st263{fill:#A25365;}
	.st264{fill:#A4BDB1;}
	.st265{fill:#C7A23A;}
	.st266{fill:#E6BE3F;}
	.st267{fill:#A77D5A;}
	.st268{fill:#DDD9D5;}
	.st269{fill:#9F7654;}
	.st270{fill:#8B6A4D;}
	.st271{fill:#CACCCB;}
	.st272{fill:#C7C7D3;}
	.st273{fill:#D7D6E8;}
	.st274{fill:#E9DBDE;}
	.st275{fill:#D5CACD;}
	.st276{fill:#C9C6C7;}
	.st277{fill:#A19C9E;}
	.st278{fill:#B8AFB2;}
	.st279{fill:#6C9C84;}
	.st280{fill:#8481B6;}
	.st281{fill:#82653B;}
	.st282{fill:#D1CFC0;}
	.st283{fill:#C6919C;}
	.st284{fill:#A88089;}
	.st285{fill:#CECCBE;}
	.st286{fill:#739EF9;}
	.st287{fill:#A3B8D1;}
	.st288{fill:#B1C8EA;}
	.st289{fill:#6B93DA;}
	.st290{fill:#6D98E4;}
	.st291{fill:#BCC2C7;}
	.st292{fill:#A8ABB0;}
	.st293{fill:#B2B9BF;}
	.st294{fill:#CA9268;}
	.st295{fill:#DDA16E;}
	.st296{fill:#989B9C;}
	.st297{fill:#C03C50;}
	.st298{fill:#853248;}
	.st299{fill:#E3E7EC;}
	.st300{fill:#AC844B;}
	.st301{fill:#C6BB5A;}
	.st302{fill:#94B5A6;}
	.st303{fill:#C7E0D5;}
	.st304{fill:#6892DC;}
	.st305{fill:#B7D5C8;}
	.st306{fill:#A2BBAF;}
	.st307{fill:#528672;}
	.st308{fill:#67A588;}
	.st309{fill:#C5A03A;}
	.st310{fill:#E4BC3F;}
	.st311{fill:#DCE6E1;}
	.st312{fill:#993A52;}
	.st313{fill:#983347;}
</style>
<g id="BULINE">
	<g>
		<g>
			<path id="XMLID_2957_" class="st0" d="M512,256c0,3.3-0.1,6.5-0.2,9.8c-0.3,7.8-0.9,15.5-1.9,23.2c-1,7.9-2.4,15.7-4.1,23.3
				c-1.1,4.8-2.3,9.5-3.6,14.2c-1.1,4-2.4,7.9-3.7,11.8c-1,2.8-2,5.6-3,8.3c-0.4,1.2-0.9,2.3-1.3,3.5c-0.7,1.8-1.4,3.5-2.2,5.3
				c-0.5,1.1-0.9,2.2-1.4,3.3c-3.3,7.6-7,14.9-11,22.1c-2.3,4.1-4.7,8.1-7.2,12c-0.9,1.5-1.9,3-2.9,4.4c-3.5,5.3-7.3,10.5-11.2,15.6
				c-1.2,1.5-2.4,3.1-3.7,4.6c-2.5,3.1-5.1,6.1-7.7,9c-2.2,2.4-4.4,4.8-6.7,7.2c-1.4,1.5-2.8,2.9-4.2,4.3c-1.7,1.7-3.4,3.3-5.1,4.9
				c-0.1,0.1-0.2,0.2-0.3,0.3c-1.2,1.2-2.5,2.3-3.8,3.5c-1.8,1.6-3.5,3.1-5.4,4.7c-1.5,1.2-2.9,2.5-4.4,3.7c-1,0.8-2.1,1.7-3.1,2.5
				c-0.8,0.6-1.5,1.2-2.3,1.8c-3.3,2.5-6.7,5-10.1,7.4c-2.2,1.5-4.5,3-6.8,4.5c-3,2-6.1,3.8-9.2,5.7c-0.5,0.3-1,0.6-1.5,0.9
				c-0.2,0.1-0.4,0.2-0.5,0.3c-0.2,0.1-0.4,0.2-0.6,0.3c-1.4,0.8-2.8,1.6-4.2,2.4c-0.5,0.3-1.1,0.6-1.6,0.9
				c-1.1,0.6-2.1,1.1-3.2,1.7c-0.8,0.4-1.5,0.8-2.3,1.2c-0.1,0.1-0.3,0.1-0.4,0.2c-0.6,0.3-1.3,0.7-1.9,1c-1.6,0.8-3.1,1.5-4.7,2.3
				c-0.1,0-0.2,0.1-0.3,0.1c-1,0.5-2.1,1-3.1,1.4c-3.6,1.6-7.1,3.1-10.8,4.6c-0.2,0.1-0.4,0.2-0.6,0.2c-1.8,0.7-3.5,1.4-5.3,2
				c-2,0.7-4,1.5-6,2.1c-1.5,0.5-3.1,1-4.7,1.5c-0.8,0.3-1.6,0.5-2.5,0.8c-0.5,0.2-1,0.3-1.5,0.5c-4.7,1.4-9.5,2.7-14.3,3.8
				c-1.2,0.3-2.4,0.6-3.6,0.8h0c-0.7,0.2-1.4,0.3-2,0.4c-0.4,0.1-0.8,0.2-1.3,0.3c-4.1,0.9-8.2,1.6-12.3,2.3
				c-1.9,0.3-3.7,0.6-5.6,0.8c-2,0.3-4.1,0.5-6.1,0.8c-1.4,0.1-2.8,0.3-4.2,0.4c-1.4,0.1-2.9,0.3-4.3,0.4c-4.2,0.3-8.4,0.6-12.7,0.7
				c-0.3,0-0.6,0-0.9,0c-0.4,0-0.8,0-1.1,0c-0.3,0-0.6,0-0.9,0l-1.5,0c0,0,0,0,0,0c-0.6,0-1.3,0-1.9,0c-0.3,0-0.7,0-1,0h-0.3
				c-0.7,0-1.4,0-2.1,0c-0.7,0-1.5,0-2.2,0c-0.8,0-1.5,0-2.3,0c-0.4,0-0.8,0-1.1,0c-4.6-0.1-9.2-0.4-13.8-0.8
				c-0.9-0.1-1.8-0.1-2.7-0.2c-0.2,0-0.3,0-0.5,0c-2.9-0.3-5.9-0.6-8.8-1c-0.4,0-0.9-0.1-1.3-0.2c-6.6-0.9-13.2-2.1-19.7-3.5
				c-1.4-0.3-2.8-0.6-4.1-0.9c-3.3-0.8-6.6-1.6-9.9-2.5c-0.4-0.1-0.8-0.2-1.1-0.3c-1.3-0.4-2.6-0.7-3.9-1.1
				c-0.7-0.2-1.4-0.4-2.2-0.7c-1.4-0.4-2.7-0.9-4.1-1.3c-0.9-0.3-1.8-0.6-2.7-0.9c-1.2-0.4-2.5-0.9-3.7-1.3c0,0-0.1,0-0.1,0
				c-1.9-0.7-3.8-1.4-5.6-2.1c-0.2-0.1-0.3-0.1-0.5-0.2c-1.4-0.5-2.8-1.1-4.2-1.7c-5.6-2.3-11.1-4.8-16.5-7.5c0,0,0,0-0.1,0
				c-1.5-0.7-3-1.5-4.4-2.2c-1.3-0.7-2.6-1.4-3.9-2.1c-0.3-0.2-0.7-0.3-1-0.5c-0.7-0.4-1.3-0.7-2-1.1c-0.4-0.2-0.7-0.4-1-0.6
				c-4-2.3-8-4.6-11.8-7.1c-3.1-2-6.1-4-9-6c-2.4-1.6-4.7-3.3-7-5.1c-0.1-0.1-0.2-0.2-0.3-0.2c-1.3-1-2.6-2-3.9-3
				c-2.6-2-5.1-4-7.5-6.2c-2.2-1.9-4.4-3.8-6.6-5.8c-0.9-0.8-1.7-1.6-2.6-2.4c-0.1-0.1-0.2-0.2-0.3-0.3c-3.2-3-6.3-6.1-9.4-9.2
				c-2.3-2.3-4.5-4.8-6.7-7.2c-0.5-0.6-1.1-1.2-1.6-1.8c-7.5-8.5-14.4-17.5-20.7-27c-0.1-0.1-0.2-0.3-0.3-0.4c-1-1.5-1.9-3-2.9-4.4
				c-0.4-0.7-0.8-1.3-1.2-2c-2-3.3-4-6.6-5.9-10c-3.1-5.6-6.1-11.3-8.8-17.2c-0.8-1.6-1.5-3.3-2.2-4.9c-0.5-1.1-1-2.2-1.4-3.3
				c-0.1-0.2-0.2-0.4-0.2-0.6c-0.7-1.6-1.3-3.1-1.9-4.7c-0.5-1.2-0.9-2.3-1.4-3.5c-0.1-0.2-0.2-0.5-0.3-0.7c-0.4-1-0.7-2-1.1-3
				c-0.5-1.2-0.9-2.5-1.3-3.8c-1.4-4.2-2.8-8.4-4-12.6c-1.3-4.7-2.5-9.4-3.6-14.2c-1.7-7.7-3.1-15.4-4.1-23.3
				c-0.2-1.3-0.3-2.5-0.5-3.8c-0.7-6.4-1.2-12.8-1.5-19.4C0.1,262.5,0,259.3,0,256c0-1.8,0-3.6,0.1-5.4c0.1-4.9,0.3-9.8,0.7-14.7
				c1.7-21.9,6.1-43,13-63C27.6,132.5,51.3,96.7,82,68.2c0.7-0.6,1.3-1.2,2-1.8c5.8-5.2,11.8-10.2,18-14.9c2.4-1.8,4.8-3.6,7.3-5.3
				c2.5-1.8,5.1-3.5,7.7-5.2c4.9-3.2,9.9-6.2,15-9c1.3-0.7,2.7-1.5,4-2.2c11.7-6.2,24-11.6,36.7-16c1.1-0.4,2.2-0.8,3.3-1.1
				c1.7-0.6,3.3-1.1,5-1.6c1.5-0.5,3.1-0.9,4.6-1.4c5.1-1.5,10.3-2.8,15.6-3.9c4.9-1.1,9.8-2,14.8-2.8c9.4-1.5,19-2.4,28.7-2.9
				c0,0,0.1,0,0.1,0c1.6-0.1,3.2-0.1,4.8-0.2c0,0,0,0,0,0h0c0,0,0,0,0.1,0C251.9,0,253.9,0,256,0c2.1,0,4.2,0,6.4,0.1c0,0,0,0,0,0
				h0.1c1.1,0,2.1,0.1,3.2,0.1h0c6.4,0.2,12.8,0.7,19,1.4c1.1,0.1,2.2,0.2,3.3,0.4c7.4,0.9,14.8,2.2,22,3.7c4.4,0.9,8.7,2,13,3.2
				c1.1,0.3,2.3,0.6,3.4,0.9c12.9,3.7,25.4,8.3,37.4,13.9c4.2,1.9,8.3,4,12.3,6.1c1.3,0.7,2.6,1.4,4,2.1c5.8,3.2,11.5,6.7,17,10.3
				c1.5,1,3,2,4.5,3C406.8,49,412,52.9,417,57c3.3,2.7,6.6,5.5,9.8,8.3c1.8,1.6,3.5,3.2,5.2,4.8c29.9,28.3,53,63.8,66.5,103.6
				C507.2,199.5,512,227.2,512,256z"/>
		</g>
	</g>
</g>
<g id="ICON_1_">
	<g id="XMLID_2415_">
		<g id="XMLID_2944_">
			<path id="XMLID_2956_" class="st37" d="M184.8,172.4c-4.6,2.8-15.5,16.9-15.5,16.9s17.5-3.1,22.1-5.9c4.6-2.8,6.9-7.5,5.1-10.5
				C194.7,169.8,189.4,169.6,184.8,172.4z"/>
			<path id="XMLID_2955_" class="st37" d="M160.2,168.8c0.8,5.3,9.6,20.8,9.6,20.8s3.9-17.4,3-22.7c-0.8-5.3-4.3-9.3-7.8-8.7
				C161.6,158.7,159.4,163.5,160.2,168.8z"/>
			<path id="XMLID_2954_" class="st37" d="M147.5,193c5.4,0.6,22.6-3.9,22.6-3.9s-15.8-8.2-21.2-8.8c-5.4-0.6-10,1.8-10.4,5.3
				C138.1,189,142.1,192.4,147.5,193z"/>
			<path id="XMLID_2953_" class="st37" d="M163.3,210.6c2.9-4.6,6.4-22,6.4-22s-14.3,10.6-17.2,15.2c-2.9,4.6-2.8,9.8,0.2,11.7
				C155.6,217.3,160.4,215.2,163.3,210.6z"/>
			<path id="XMLID_2952_" class="st37" d="M188.1,201.1c-3.4-4.2-18.8-13.1-18.8-13.1s5.5,16.9,8.9,21.1c3.4,4.2,8.4,5.8,11.1,3.6
				C192.1,210.5,191.5,205.3,188.1,201.1z"/>
			<g id="XMLID_2946_">
				<path id="XMLID_2951_" class="st38" d="M174,184.5c-1.3,0.8-4.3,4.7-4.3,4.7s4.8-0.9,6.1-1.6c1.3-0.8,1.9-2.1,1.4-2.9
					S175.3,183.8,174,184.5z"/>
				<path id="XMLID_2950_" class="st38" d="M167.2,183.5c0.2,1.5,2.7,5.7,2.7,5.7s1.1-4.8,0.8-6.3s-1.2-2.6-2.2-2.4
					C167.6,180.7,167,182.1,167.2,183.5z"/>
				<path id="XMLID_2949_" class="st38" d="M163.7,190.2c1.5,0.2,6.2-1.1,6.2-1.1s-4.4-2.3-5.8-2.4s-2.8,0.5-2.9,1.5
					C161.1,189.1,162.2,190,163.7,190.2z"/>
				<path id="XMLID_2948_" class="st38" d="M168.1,195.1c0.8-1.3,1.8-6.1,1.8-6.1s-3.9,2.9-4.7,4.2c-0.8,1.3-0.8,2.7,0,3.2
					C165.9,196.9,167.3,196.3,168.1,195.1z"/>
				<path id="XMLID_2947_" class="st38" d="M174.9,192.4c-0.9-1.2-5.2-3.6-5.2-3.6s1.5,4.7,2.5,5.8c0.9,1.2,2.3,1.6,3.1,1
					C176,195,175.9,193.6,174.9,192.4z"/>
			</g>
			<circle id="XMLID_2945_" class="st39" cx="169.7" cy="188.6" r="2.4"/>
		</g>
		<g id="XMLID_2931_">
			<path id="XMLID_2943_" class="st37" d="M439.7,224.3c-4.6,2.8-15.5,16.9-15.5,16.9s17.5-3.1,22.1-5.9s6.9-7.5,5.1-10.5
				C449.6,221.7,444.3,221.5,439.7,224.3z"/>
			<path id="XMLID_2942_" class="st37" d="M415.1,220.7c0.8,5.3,9.6,20.8,9.6,20.8s3.9-17.4,3-22.7c-0.8-5.3-4.3-9.3-7.8-8.7
				C416.4,210.6,414.3,215.4,415.1,220.7z"/>
			<path id="XMLID_2941_" class="st37" d="M402.4,244.9c5.4,0.6,22.6-3.9,22.6-3.9s-15.8-8.2-21.2-8.8c-5.4-0.6-10,1.8-10.4,5.3
				C393,240.9,397,244.3,402.4,244.9z"/>
			<path id="XMLID_2940_" class="st37" d="M418.2,262.5c2.9-4.6,6.4-22,6.4-22s-14.3,10.6-17.2,15.2c-2.9,4.6-2.8,9.8,0.2,11.7
				S415.3,267,418.2,262.5z"/>
			<path id="XMLID_2939_" class="st37" d="M443,252.9c-3.4-4.2-18.8-13.1-18.8-13.1s5.5,16.9,8.9,21.1c3.4,4.2,8.4,5.8,11.1,3.6
				C447,262.4,446.4,257.1,443,252.9z"/>
			<g id="XMLID_2933_">
				<path id="XMLID_2938_" class="st38" d="M428.9,236.4c-1.3,0.8-4.3,4.7-4.3,4.7s4.8-0.9,6.1-1.6s1.9-2.1,1.4-2.9
					C431.6,235.7,430.2,235.6,428.9,236.4z"/>
				<path id="XMLID_2937_" class="st38" d="M422.1,235.4c0.2,1.5,2.7,5.7,2.7,5.7s1.1-4.8,0.8-6.3s-1.2-2.6-2.2-2.4
					S421.9,233.9,422.1,235.4z"/>
				<path id="XMLID_2936_" class="st38" d="M418.6,242.1c1.5,0.2,6.2-1.1,6.2-1.1s-4.4-2.3-5.8-2.4s-2.8,0.5-2.9,1.5
					C416,241,417.1,241.9,418.6,242.1z"/>
				<path id="XMLID_2935_" class="st38" d="M422.9,246.9c0.8-1.3,1.8-6.1,1.8-6.1s-3.9,2.9-4.7,4.2c-0.8,1.3-0.8,2.7,0,3.2
					C420.8,248.8,422.1,248.2,422.9,246.9z"/>
				<path id="XMLID_2934_" class="st38" d="M429.8,244.3c-0.9-1.2-5.2-3.6-5.2-3.6s1.5,4.7,2.5,5.8c0.9,1.2,2.3,1.6,3.1,1
					C430.9,246.9,430.7,245.5,429.8,244.3z"/>
			</g>
			<circle id="XMLID_2932_" class="st39" cx="424.6" cy="240.5" r="2.4"/>
		</g>
		<g id="XMLID_2577_">
			<path id="XMLID_2930_" class="st37" d="M290.9,50.7c-7.2,4.4-24.1,26.2-24.1,26.2s27.2-4.8,34.4-9.2s10.7-11.7,7.9-16.4
				C306.2,46.6,298.1,46.3,290.9,50.7z"/>
			<path id="XMLID_2929_" class="st37" d="M252.6,45.1c1.3,8.3,15,32.3,15,32.3s6-27,4.7-35.3s-6.7-14.4-12.1-13.6
				C254.7,29.4,251.3,36.8,252.6,45.1z"/>
			<path id="XMLID_2928_" class="st37" d="M232.8,82.7c8.4,0.9,35.1-6.1,35.1-6.1s-24.5-12.8-32.9-13.7c-8.4-0.9-15.6,2.7-16.2,8.2
				C218.2,76.5,224.5,81.7,232.8,82.7z"/>
			<path id="XMLID_2927_" class="st37" d="M257.4,110.1c4.5-7.1,9.9-34.2,9.9-34.2s-22.2,16.5-26.7,23.6c-4.5,7.1-4.4,15.2,0.3,18.2
				C245.5,120.5,252.9,117.2,257.4,110.1z"/>
			<path id="XMLID_2585_" class="st37" d="M296.1,95.2c-5.3-6.5-29.3-20.3-29.3-20.3s8.5,26.3,13.8,32.8s13.1,9,17.3,5.5
				C302.2,109.9,301.4,101.8,296.1,95.2z"/>
			<g id="XMLID_2579_">
				<path id="XMLID_2584_" class="st38" d="M274.1,69.5c-2,1.2-6.7,7.2-6.7,7.2s7.5-1.3,9.5-2.5c2-1.2,3-3.2,2.2-4.5
					C278.3,68.4,276.1,68.3,274.1,69.5z"/>
				<path id="XMLID_2583_" class="st38" d="M263.5,68c0.3,2.3,4.1,8.9,4.1,8.9s1.7-7.5,1.3-9.8c-0.3-2.3-1.8-4-3.3-3.7
					S263.2,65.7,263.5,68z"/>
				<path id="XMLID_2582_" class="st38" d="M258,78.3c2.3,0.3,9.7-1.7,9.7-1.7s-6.8-3.5-9.1-3.8c-2.3-0.3-4.3,0.8-4.5,2.3
					C254,76.7,255.7,78.1,258,78.3z"/>
				<path id="XMLID_2581_" class="st38" d="M264.8,85.9c1.2-2,2.7-9.4,2.7-9.4s-6.1,4.5-7.4,6.5c-1.2,2-1.2,4.2,0.1,5
					C261.5,88.8,263.6,87.9,264.8,85.9z"/>
				<path id="XMLID_2580_" class="st38" d="M275.5,81.8c-1.5-1.8-8.1-5.6-8.1-5.6s2.4,7.3,3.8,9.1c1.5,1.8,3.6,2.5,4.8,1.5
					C277.2,85.9,277,83.6,275.5,81.8z"/>
			</g>
			<circle id="XMLID_2578_" class="st39" cx="267.4" cy="75.8" r="3.7"/>
		</g>
		<g id="XMLID_2567_">
			<g id="XMLID_2573_">
				<path id="XMLID_2576_" class="st47" d="M342,230.7l-32.4,74.5c-3.7,8.5-13.5,12.3-22,8.7l-73-31.7c-8.5-3.7-12.3-13.5-8.7-22
					l32.4-74.5c7.8-18,23.9-29.9,41.9-33.1c5.1-0.9,10.3-1.1,15.5-0.6c3.4,0.3,6.9,1,10.3,2c2.2,0.6,4.5,1.5,6.7,2.4
					c1,0.4,2,0.9,2.9,1.4c4.4,2.2,8.3,4.9,11.9,8c6.8,6,12,13.5,15.3,21.7C348,200.9,348.2,216.4,342,230.7z"/>
				<polygon id="XMLID_2575_" class="st47" points="375.1,64 327.5,165.8 324.6,171.9 323.1,175.2 291.8,161.6 295.7,152 
					296.7,149.5 337.6,47.7 				"/>
				<path id="XMLID_2574_" class="st47" d="M379.8,56.1c-0.4,1-0.9,1.9-1.5,2.9l-3.1,5l-37.5-16.3l1.5-5.7
					c2.8-10.3,12.5-16.7,22.5-15.9c2.3,0.2,4.7,0.7,7,1.7C379.6,32.6,384.4,45.4,379.8,56.1z"/>
			</g>
			<g id="XMLID_2569_">
				<path id="XMLID_2572_" class="st8" d="M329,225.1l-32.4,74.5c-3.7,8.5-13.5,12.3-22,8.7l-60-26.1c-8.5-3.7-12.3-13.5-8.7-22
					l32.4-74.5c7.8-18,23.9-29.9,41.9-33.1c5.1-0.9,10.3-1.1,15.5-0.6l1-2.4c1,0.4,2,0.8,3,1.2c2.2,1,4.3,2,6.3,3.2
					c3.1,1.8,5.9,3.9,8.5,6.2c3.9,3.4,7.3,7.4,10.1,11.7c2,3.1,3.8,6.5,5.1,10C335,195.3,335.2,210.8,329,225.1z"/>
				<path id="XMLID_2571_" class="st8" d="M362.2,58.4l-46.5,99.4l-1.1,2.4l-4.4,9.4l-31.2-13.6l1.4-3.4c5.1-0.9,10.3-1.1,15.5-0.6
					l1-2.4l40.9-101.8L362.2,58.4z"/>
				<path id="XMLID_2570_" class="st8" d="M366.8,50.5c-0.4,1-0.9,1.9-1.5,2.9l-3.1,5l-24.6-10.7l1.5-5.7
					c2.8-10.3,12.5-16.7,22.5-15.9C368.2,32.1,370.5,42,366.8,50.5z"/>
			</g>
			<path id="XMLID_2568_" class="st48" d="M277.9,308.9l-53-23.1c-6.1-2.7-9-9.8-6.3-16l31-71.2c9-20.8,33.2-30.3,54-21.3l0,0
				c20.8,9,30.3,33.2,21.3,54l-31,71.2C291.2,308.7,284.1,311.6,277.9,308.9z"/>
		</g>
		<g id="XMLID_2416_">
			<path id="XMLID_2566_" class="st49" d="M433,302.7v6.9c0,15.3-1.9,30.2-5.6,44.3c-4.7,18.1-12.1,35-21.8,50.3
				c-9.5,15.1-21.3,28.6-34.9,40.1c-30.9,26.4-71,42.3-114.8,42.3c-6.2,0-12.3-0.3-18.3-0.9c-37.3-3.8-71.2-19.3-98-42.7
				c-13.1-11.4-24.5-24.7-33.7-39.5c-9.5-15.1-16.7-31.7-21.3-49.4C80.9,339.9,79,325,79,309.6v-6.9H433z"/>
			<path id="XMLID_2565_" class="st50" d="M396.4,302.7v6.9c0,15.3-1.9,30.2-5.6,44.3c-4.6,18.1-12.1,35-21.8,50.3
				c-9.5,15.1-21.3,28.6-34.8,40.1c-26.5,22.6-59.8,37.6-96.5,41.3c-37.3-3.8-71.2-19.3-98-42.7c-13.1-11.4-24.5-24.7-33.7-39.5
				c-9.5-15.1-16.7-31.7-21.3-49.4C80.9,339.9,79,325,79,309.6v-6.9H396.4z"/>
			<path id="XMLID_2564_" class="st4" d="M412.4,295.8c-17.7-26.7-81.8-46.4-158.1-46.4c-76.1,0-140,19.6-157.9,46.1
				c28.9-5.5,90.4-8.9,160.6-8.9C324.3,286.7,382.9,290.4,412.4,295.8z"/>
			<path id="XMLID_2563_" class="st51" d="M79,302.7c0,2.2,4.4,4.4,12.4,6.4c0.3-4.7,2-9.2,5-13.6C85.2,297.6,79,300,79,302.7z"/>
			<path id="XMLID_2562_" class="st51" d="M432.9,303.9c0-2.9-7.4-5.7-20.5-8.1c3.2,4.8,4.9,9.8,4.9,14.9c0,0.1,0,0.1,0,0.2
				C427.3,308.8,432.9,306.4,432.9,303.9z"/>
			<path id="XMLID_2561_" class="st4" d="M412.4,295.8c-29.6-5.4-88.1-9.1-155.5-9.1c-70.1,0-131.7,3.4-160.6,8.9
				c-3,4.4-4.7,8.9-5,13.6c26.2,6.7,91.1,11.9,165.6,11.9c71.3,0,132.7-4.1,160.4-10.1c0-0.1,0-0.1,0-0.2
				C417.3,305.6,415.6,300.6,412.4,295.8z"/>
			
				<ellipse id="XMLID_2560_" transform="matrix(0.9423 -0.3347 0.3347 0.9423 -83.4235 65.8273)" class="st4" cx="149.3" cy="275" rx="43.7" ry="30.1"/>
			
				<ellipse id="XMLID_2488_" transform="matrix(0.4117 -0.9113 0.9113 0.4117 -34.1278 497.1077)" class="st4" cx="368" cy="275" rx="30.1" ry="43.7"/>
			<circle id="XMLID_2487_" class="st4" cx="212.3" cy="255.6" r="31.3"/>
			<circle id="XMLID_2486_" class="st4" cx="301.6" cy="261.9" r="31.3"/>
			<circle id="XMLID_2485_" class="st4" cx="261" cy="242.2" r="24.7"/>
			<circle id="XMLID_2484_" class="st52" cx="155.6" cy="275" r="8.4"/>
			<circle id="XMLID_2483_" class="st52" cx="217" cy="242.2" r="8.4"/>
			<circle id="XMLID_2482_" class="st52" cx="353.6" cy="286.9" r="8.4"/>
			<circle id="XMLID_2481_" class="st52" cx="270.3" cy="306.9" r="8.4"/>
			<circle id="XMLID_2480_" class="st52" cx="310" cy="255.6" r="8.4"/>
			<circle id="XMLID_2479_" class="st52" cx="388" cy="272.6" r="8.4"/>
			<circle id="XMLID_2478_" class="st52" cx="217" cy="298.5" r="8.4"/>
			<circle id="XMLID_2477_" class="st52" cx="121.6" cy="298.5" r="8.4"/>
			<circle id="XMLID_2476_" class="st52" cx="261.9" cy="264" r="8.4"/>
			<circle id="XMLID_2434_" class="st53" cx="189.4" cy="272.4" r="8.4"/>
			<circle id="XMLID_2433_" class="st53" cx="183.3" cy="306.9" r="8.4"/>
			<circle id="XMLID_2432_" class="st53" cx="310" cy="290.1" r="8.4"/>
			<circle id="XMLID_2431_" class="st53" cx="384.3" cy="302.3" r="8.4"/>
			<circle id="XMLID_2430_" class="st53" cx="264.4" cy="239" r="8.4"/>
			<circle id="XMLID_2429_" class="st54" cx="130" cy="264" r="3.7"/>
			<circle id="XMLID_2428_" class="st54" cx="164" cy="255.6" r="3.7"/>
			<circle id="XMLID_2427_" class="st54" cx="155.6" cy="302.3" r="3.7"/>
			<circle id="XMLID_2426_" class="st54" cx="232.6" cy="278.5" r="3.7"/>
			<circle id="XMLID_2425_" class="st54" cx="241.4" cy="307.8" r="3.7"/>
			<circle id="XMLID_2424_" class="st54" cx="289.3" cy="256.5" r="3.7"/>
			<circle id="XMLID_2423_" class="st54" cx="285.6" cy="286.9" r="3.7"/>
			<circle id="XMLID_2422_" class="st54" cx="362" cy="260.3" r="3.7"/>
			<circle id="XMLID_2421_" class="st54" cx="333" cy="307.8" r="3.7"/>
			<circle id="XMLID_2420_" class="st54" cx="333" cy="272.6" r="3.7"/>
			<circle id="XMLID_2419_" class="st54" cx="396.4" cy="286.9" r="3.7"/>
			<circle id="XMLID_2418_" class="st54" cx="245.2" cy="247.4" r="3.7"/>
			<circle id="XMLID_2417_" class="st54" cx="208.6" cy="260.3" r="3.7"/>
		</g>
	</g>
</g>
</svg>
